<?xml version="1.0" encoding="utf-8"?>
<!-- Generator: Adobe Illustrator 28.2.0, SVG Export Plug-In . SVG Version: 6.00 Build 0)  -->
<svg version="1.1" id="Lager_1" xmlns="http://www.w3.org/2000/svg" xmlns:xlink="http://www.w3.org/1999/xlink" x="0px" y="0px"
	 viewBox="0 0 500 500" style="enable-background:new 0 0 500 500;" xml:space="preserve">
<style type="text/css">
	.st0{fill:#FFFFFF;stroke:#FFFFFF;stroke-miterlimit:10;}
	.st1{fill:#FFFFFF;stroke:#FFFFFF;stroke-width:2;stroke-miterlimit:10;}
	.st2{enable-background:new    ;}
</style>
<path class="st0" d="M250,12c32.4,0,63.8,6.4,93.4,18.9C372,43,397.7,60.2,419.7,82.3s39.4,47.7,51.4,76.3
	c12.5,29.6,18.9,61,18.9,93.4s-6.4,63.8-18.9,93.4c-12.1,28.6-29.4,54.2-51.4,76.3s-47.7,39.4-76.3,51.4
	c-29.6,12.5-61,18.9-93.4,18.9s-63.8-6.4-93.4-18.9c-28.6-12.1-54.2-29.4-76.3-51.4c-22-22-39.3-47.7-51.4-76.3
	C16.4,315.8,10,284.4,10,252s6.4-63.8,18.9-93.4C41,130,58.3,104.3,80.3,82.3S128,43,156.6,30.9C186.2,18.4,217.6,12,250,12 M250,11
	C116.9,11,9,118.9,9,252s107.9,241,241,241s241-107.9,241-241S383.1,11,250,11L250,11L250,11z"/>
<line class="st1" x1="119" y1="319" x2="381" y2="319"/>
<g class="st2">
	<path class="st0" d="M205.5,130.2c0-1.4,1.2-2.6,2.6-2.6c1.4,0,2.5,1.2,2.5,2.6c0,1.5-1.1,2.7-2.5,2.7
		C206.7,132.9,205.5,131.7,205.5,130.2z"/>
	<path class="st0" d="M217.7,130.2c0-1.4,1.2-2.6,2.6-2.6c1.4,0,2.5,1.2,2.5,2.6c0,1.5-1.1,2.7-2.5,2.7
		C218.9,132.9,217.7,131.7,217.7,130.2z"/>
</g>
<g class="st2">
	<path class="st0" d="M115.1,196.2c2.4-0.7,3.2-2.6,3.2-9.1v-35.7c0-6.6-0.8-8.4-3.2-9.1v-1h18.7c12.3,0,17.4,4.1,17.4,10.6
		c0,5.4-3.5,10.4-12.6,12.1c13,0.6,18.8,7.1,18.9,15c0.2,9-6.6,18.4-26,18.4h-16.3L115.1,196.2L115.1,196.2z M132.3,163.7
		c7.9,0,11.6-4.6,11.6-10.5c0-6.6-4.7-10.8-13-10.8h-6.1v21.3H132.3z M129,196h3.1c13,0,18-6.3,18-15.2c0-9.2-5.1-15.9-17.1-15.9
		h-8.2V189C124.8,194.8,125.6,196,129,196z"/>
	<path class="st0" d="M151.6,205c0-1.7,1.6-3.7,4.4-3.7c2.2,0,4.2,0.4,8,1.2c1.9-1.2,4.2-3.2,4.2-11.3v-39.9c0-6.6-0.7-8.4-3.2-9.1
		v-1h13v1c-2.5,0.7-3.2,2.6-3.2,9.1v30.2c0,15.4-9.6,25.3-19.9,25.3C152.8,206.8,151.6,206.6,151.6,205z"/>
	<path class="st0" d="M186.2,169.1c0-16.4,11.5-28.6,28.5-28.6c13.5,0,28.3,9.3,28.3,28.9c0,19.8-14.9,28.6-28.3,28.6
		C201.1,198,186.2,189,186.2,169.1z M218,196c12.8,0,19.1-9.3,18.7-21.3c-0.6-16.7-11-32.3-25.4-32.3c-12.2,0-19.3,9-18.8,22.1
		C193.2,180.6,203.7,196,218,196z"/>
	<path class="st0" d="M280.9,185c-4.6-11-5.3-16.6-14.9-16.6h-5.1V187c0,6.6,0.7,8.4,3.2,9.1v1h-13v-1c2.5-0.7,3.2-2.6,3.2-9.1
		v-35.7c0-6.6-0.7-8.4-3.2-9.1v-1h15.8c16.2,0,21,5.4,21,12.5c0,7.5-5.4,13.2-15.8,14.4c9.8,1.3,11.4,6.2,15.2,16
		c3.8,9.6,5.4,12.2,8.2,12.2c0.5,0,0.9,0,1.3-0.1v1c-1.2,0.4-3.3,0.6-4.9,0.6C285.7,197.8,284.4,193.3,280.9,185z M267.6,167.1
		c9.2,0,13.5-4.8,13.5-11.6c0-7.1-4.6-13.1-16.5-13.1c-1.2,0-2.5,0.1-3.8,0.2v24.6L267.6,167.1L267.6,167.1z"/>
	<path class="st0" d="M300.1,196.2c2.4-0.7,3.2-2.6,3.2-9.1v-35.7c0-6.6-0.8-8.4-3.2-9.1v-1h18.7c12.3,0,17.4,4.1,17.4,10.6
		c0,5.4-3.5,10.4-12.6,12.1c13,0.6,18.8,7.1,18.9,15c0.2,9-6.6,18.4-26,18.4h-16.3v-1.2H300.1z M317.3,163.7
		c7.9,0,11.6-4.6,11.6-10.5c0-6.6-4.7-10.8-13-10.8h-6.1v21.3H317.3z M314,196h3.1c13,0,18-6.3,18-15.2c0-9.2-5.1-15.9-17.1-15.9
		h-8.2V189C309.9,194.8,310.6,196,314,196z"/>
	<path class="st0" d="M360.1,196.2c2.4-0.7,3.2-2.6,3.1-9.1v-15l-12.1-21.9c-3.1-5.7-5.4-7.1-7.1-7.8v-1h12.6v1
		c-2.4,0.7-1.4,2.2,1.8,7.8l11.1,19.8l11.2-19.8c2.7-4.9,2.8-7.3-0.2-7.8v-1h9.5v1c-2.2,0.7-4.6,2.2-7.8,7.8L370,171.8V187
		c0,6.6,0.7,8.4,3.2,9.1v1h-13v-0.9H360.1z"/>
</g>
<g class="st2">
	<path class="st0" d="M49.7,276.2c2.4-0.7,3.2-2.6,3.2-9.1v-35.7c0-6.6-0.8-8.4-3.2-9.1v-1h18.7c12.3,0,17.4,4.1,17.4,10.6
		c0,5.4-3.5,10.4-12.6,12.1c13,0.6,18.8,7.1,18.9,15c0.2,9-6.6,18.4-26,18.4H49.7V276.2z M66.9,243.7c7.9,0,11.6-4.6,11.6-10.5
		c0-6.6-4.7-10.8-13-10.8h-6.1v21.3H66.9z M63.6,276h3.1c13,0,18-6.3,18-15.2c0-9.2-5.1-15.9-17.1-15.9h-8.2V269
		C59.4,274.8,60.2,276,63.6,276z"/>
	<path class="st0" d="M98.6,276.2c2.4-0.7,3.2-2.6,3.2-9.1v-35.7c0-6.6-0.8-8.4-3.2-9.1v-1h13v1c-2.5,0.7-3.2,2.6-3.2,9.1v41
		c0,2.3,1.3,3.6,3.6,3.6h9.5c7.7,0,11.2-1.9,14-7.9l0.9,0.2l-0.6,9H98.6V276.2z"/>
	<path class="st0" d="M134.2,249.1c0-16.4,11.5-28.6,28.5-28.6c13.5,0,28.3,9.3,28.3,28.9c0,19.8-14.9,28.6-28.3,28.6
		C149,278,134.2,269,134.2,249.1z M166,276c12.8,0,19.1-9.3,18.7-21.3c-0.6-16.7-11-32.3-25.4-32.3c-12.2,0-19.3,9-18.8,22.1
		C141.1,260.6,151.7,276,166,276z"/>
	<path class="st0" d="M199,276.2c2.5-0.7,3.2-2.6,3.2-9.1v-32.5c0-9.1-1.7-11.4-4.9-12.3v-1h9.7l20.9,34.5l20.5-34.5h9v1
		c-3.2,1-4.9,3.2-4.9,12.3V267c0,6.6,0.7,8.4,3.2,9.1v1h-13v-1c2.4-0.7,3.2-2.6,3.2-9.1v-39.4L225.7,262h-1.5l-20.5-33.7v35.5
		c0,9.1,1.9,11.4,5.4,12.3v1H199V276.2z"/>
	<path class="st0" d="M265.1,272.3l-0.4-11.1l0.9-0.2c3.1,8.4,9.2,15.5,20.3,15.5c6.4,0,11.9-4.2,11.9-10.6c0-8-9.8-11.7-16.6-14.4
		c-9.4-3.8-15.4-7.1-15.4-15.6c0-9.4,7.8-15.3,19.5-15.3c7.3,0,12.5,2,15.6,3.7l0.3,9.3l-0.8,0.2c-3-7-8.6-11.9-17.7-11.9
		c-6.5,0-12,3.8-12,10.6c0,7.5,8.2,10.6,15,13.4c8.9,3.5,17.2,7,17.2,16.1c0,10-9.3,16.1-18.7,16.1C275.9,278,268.9,275,265.1,272.3
		z"/>
	<path class="st0" d="M321.5,276.2c2.5-0.7,3.2-2.6,3.2-9.1v-44.6h-3.9c-7.2,0-10.3,1.9-13,7.7l-0.9-0.2l0.5-8.8h41.2l0.5,8.8
		l-0.9,0.2c-2.7-5.8-5.8-7.7-13-7.7h-3.8V267c0,6.6,0.7,8.4,3.2,9.1v1h-13v-0.9H321.5z"/>
	<path class="st0" d="M354.5,276.2c2.4-0.7,3.2-2.6,3.2-9.1v-35.7c0-6.6-0.8-8.4-3.2-9.1v-1h37.2l0.9,10.4l-0.9,0.2
		c-2.8-7-7.5-9.4-15.7-9.4h-11.8v24.2h10.2c9.1,0,11.4-1.8,12.4-5.4h1v12.1h-1c-1-3.6-3.3-5.4-12.4-5.4h-10.2v24.6
		c0,2.3,1.3,3.6,3.6,3.6h10.4c7.7,0,12.6-2.2,15.4-9.6l0.9,0.2l-0.6,10.6h-39.4V276.2z"/>
	<path class="st0" d="M431.4,265c-4.6-11-5.3-16.6-14.9-16.6h-5.1V267c0,6.6,0.7,8.4,3.2,9.1v1h-13v-1c2.5-0.7,3.2-2.6,3.2-9.1
		v-35.7c0-6.6-0.7-8.4-3.2-9.1v-1h15.8c16.2,0,21,5.4,21,12.5c0,7.5-5.4,13.2-15.8,14.4c9.8,1.3,11.4,6.2,15.2,16
		c3.8,9.6,5.4,12.2,8.2,12.2c0.5,0,0.9,0,1.3-0.1v1c-1.2,0.4-3.3,0.6-4.9,0.6C436.2,277.8,434.9,273.3,431.4,265z M418.1,247.1
		c9.2,0,13.5-4.8,13.5-11.6c0-7.1-4.6-13.1-16.5-13.1c-1.2,0-2.5,0.1-3.8,0.2v24.6L418.1,247.1L418.1,247.1z"/>
</g>
</svg>
