<?xml version="1.0" encoding="iso-8859-1"?>
<!-- Uploaded to: SVG Repo, www.svgrepo.com, Generator: SVG Repo Mixer Tools -->
<svg fill="#000000" height="800px" width="800px" version="1.1" id="Layer_1" xmlns="http://www.w3.org/2000/svg" xmlns:xlink="http://www.w3.org/1999/xlink" 
	 viewBox="0 0 511.997 511.997" xml:space="preserve">
<g>
	<g>
		<path d="M314.124,386.512c-0.179-0.889-0.444-1.765-0.791-2.599c-0.348-0.848-0.779-1.655-1.279-2.406
			c-0.514-0.765-1.099-1.474-1.738-2.114c-3.225-3.226-8.024-4.715-12.543-3.796c-0.891,0.181-1.767,0.445-2.6,0.793
			c-0.848,0.348-1.655,0.779-2.406,1.279c-0.751,0.499-1.474,1.085-2.114,1.724c-0.64,0.64-1.224,1.349-1.724,2.114
			c-0.501,0.751-0.932,1.557-1.279,2.406c-0.348,0.834-0.612,1.709-0.793,2.599c-0.181,0.891-0.277,1.809-0.277,2.712
			c0,0.904,0.096,1.823,0.277,2.712s0.445,1.767,0.793,2.614c0.348,0.836,0.779,1.641,1.279,2.392
			c0.501,0.766,1.085,1.475,1.724,2.115c2.587,2.586,6.173,4.074,9.831,4.074c3.671,0,7.245-1.487,9.83-4.074
			c0.64-0.64,1.224-1.349,1.738-2.115c0.501-0.751,0.932-1.556,1.279-2.392c0.348-0.847,0.612-1.724,0.793-2.614
			s0.264-1.808,0.264-2.712C314.388,388.321,314.303,387.402,314.124,386.512z"/>
	</g>
</g>
<g>
	<g>
		<path d="M225.142,386.51c-0.181-0.887-0.444-1.763-0.791-2.598c-0.348-0.848-0.78-1.655-1.281-2.406
			c-0.513-0.765-1.083-1.474-1.738-2.114c-0.64-0.64-1.349-1.225-2.1-1.724c-0.765-0.501-1.571-0.932-2.404-1.279
			c-0.836-0.348-1.71-0.612-2.6-0.793c-1.794-0.362-3.643-0.362-5.437,0c-0.89,0.181-1.766,0.445-2.6,0.793
			c-0.834,0.348-1.641,0.779-2.392,1.279c-0.765,0.499-1.475,1.085-2.115,1.724c-0.654,0.64-1.224,1.349-1.738,2.114
			c-0.499,0.751-0.932,1.557-1.279,2.406c-0.348,0.834-0.61,1.709-0.791,2.599c-0.182,0.891-0.264,1.809-0.264,2.712
			c0,0.904,0.083,1.823,0.264,2.712c0.181,0.89,0.444,1.767,0.791,2.614c0.348,0.836,0.78,1.641,1.279,2.392
			c0.514,0.766,1.085,1.475,1.738,2.115c0.64,0.64,1.35,1.224,2.115,1.738c0.751,0.501,1.557,0.918,2.392,1.265
			c0.836,0.348,1.71,0.626,2.6,0.807c0.904,0.181,1.808,0.263,2.712,0.263c3.671,0,7.245-1.487,9.83-4.074
			c0.655-0.64,1.225-1.349,1.738-2.115c0.501-0.751,0.933-1.556,1.281-2.392c0.348-0.847,0.61-1.724,0.791-2.614
			c0.181-0.89,0.278-1.808,0.278-2.712C225.42,388.319,225.322,387.4,225.142,386.51z"/>
	</g>
</g>
<g>
	<g>
		<path d="M499.567,265.529c-0.751-4.252-3.253-13.443-11.332-21.377c8.079-7.935,10.58-17.124,11.329-21.375
			c4.047-22.953-11.037-49.078-32.937-57.049c-4.042-1.47-13.199-3.891-24.064-0.905c-2.71-10.699-9.539-18.77-17.69-23.917
			c-11.086-7-26.374-9.413-40.341-6.425c3.433-5.352,5.788-11.382,6.947-17.957c5.124-29.06-13.974-62.141-41.704-72.233
			c-11.623-4.23-23.679-4.016-35.055,0.587c-1.703-12.154-7.547-22.703-17.019-30.653c-22.605-18.969-60.803-18.969-83.407,0
			c-9.474,7.95-15.317,18.499-17.019,30.653c-11.375-4.601-23.433-4.817-35.055-0.587c-27.73,10.093-46.828,43.172-41.704,72.233
			c1.16,6.575,3.513,12.603,6.946,17.955c-13.967-2.987-29.255-0.574-40.341,6.427c-8.149,5.147-14.978,13.218-17.69,23.915
			c-10.858-2.98-20.02-0.562-24.063,0.907c-21.902,7.971-36.985,34.097-32.937,57.049c0.748,4.251,3.251,13.44,11.329,21.375
			c-8.079,7.935-10.581,17.124-11.329,21.375c-4.048,22.953,11.036,49.078,32.937,57.049c4.055,1.477,13.265,3.903,24.177,0.876
			c2.833,10.963,9.539,17.724,12.846,20.499c8.928,7.491,20.932,11.236,32.937,11.236c12.005,0,24.01-3.745,32.937-11.236
			c1.553-1.303,3.856-3.499,6.156-6.583l21.447,26.943c2.745,3.449,6.797,5.244,10.888,5.244c3.036,0,6.092-0.989,8.652-3.027
			c6.007-4.782,7.002-13.53,2.218-19.541l-18.171-22.825c2.45-0.471,4.447-1.082,5.832-1.587
			c16.791-6.112,29.563-22.896,32.79-40.739c7.077,4.952,15.337,8.288,24.014,9.994v164.552c0,7.679,6.227,13.906,13.906,13.906
			c7.679,0,13.906-6.227,13.906-13.906V291.831c8.677-1.706,16.936-5.041,24.013-9.993c3.226,17.843,15.999,34.627,32.791,40.739
			c1.385,0.503,3.382,1.115,5.832,1.587l-18.171,22.825c-4.784,6.009-3.791,14.757,2.218,19.541c2.56,2.039,5.617,3.027,8.652,3.027
			c4.09,0,8.143-1.797,10.888-5.244l21.447-26.943c2.3,3.084,4.603,5.28,6.156,6.583c8.928,7.491,20.933,11.236,32.937,11.236
			c12.005,0,24.01-3.745,32.937-11.236c3.307-2.774,10.014-9.535,12.846-20.499c10.912,3.029,20.12,0.599,24.177-0.876
			C488.53,314.607,503.613,288.481,499.567,265.529z M171.733,70.426c16.545-6.025,29.721,9.5,37.853,23.584
			c0.142,0.246,0.303,0.473,0.458,0.708c-11.034,9.787-18.944,23.021-21.998,38.008c-0.263-0.015-0.521-0.04-0.788-0.04
			c-16.263,0-36.293-3.641-39.352-20.99C145.18,96.235,156.982,75.795,171.733,70.426z M175.777,296.442
			c-9.699,3.521-17.987-6.555-23.23-15.638c-3.841-6.65-12.344-8.93-18.995-5.09c-4.462,2.577-6.957,7.252-6.956,12.059
			c0.001,2.357,0.602,4.747,1.866,6.936c5.244,9.082,9.834,21.302,1.929,27.938c-7.461,6.258-22.66,6.258-30.12,0
			c-7.907-6.634-3.315-18.856,1.929-27.938c1.264-2.189,1.865-4.579,1.866-6.936c0.001-4.807-2.493-9.482-6.956-12.059
			c-6.653-3.841-15.156-1.56-18.995,5.09c-5.244,9.083-13.535,19.159-23.231,15.638c-9.15-3.332-16.751-16.495-15.06-26.085
			c1.792-10.167,14.672-12.3,25.16-12.3c7.679,0,13.906-6.227,13.906-13.906c0-7.679-6.227-13.906-13.906-13.906
			c-10.488,0-23.367-2.133-25.16-12.3c-1.691-9.589,5.91-22.753,15.06-26.085c9.698-3.527,17.987,6.555,23.231,15.638
			c3.841,6.651,12.346,8.933,18.995,5.09c6.651-3.841,8.93-12.344,5.09-18.995c-0.008-0.014-0.015-0.028-0.024-0.04
			c-5.649-9.795-10.254-22.786-0.203-29.134c6.443-4.069,16.067-4.417,23.152-1.731c-3.511,6.825-5.198,14.229-5.401,21.732
			c-0.021,0.613-0.024,1.227-0.025,1.841c0,0.025,0,0.05,0,0.074c0.004,21.546,11.91,43.638,29.738,55.903
			c0.081,0.057,0.16,0.115,0.242,0.171c0.385,0.261,0.777,0.512,1.168,0.765c0.312,0.202,0.619,0.414,0.932,0.609
			c-0.004,0.122-0.006,0.245-0.006,0.369c0,7.679,6.227,13.906,13.906,13.906c10.488,0,23.366,2.133,25.158,12.3
			C192.528,279.946,184.929,293.11,175.777,296.442z M209.585,199.169c-4.257,7.373-9.894,15.137-16.673,20.001
			c-0.264,0.154-0.528,0.309-0.784,0.483c-4.129,2.803-8.056,4.102-11.699,4.38c-0.085,0.006-0.17,0.007-0.254,0.011
			c-0.33,0.021-0.658,0.036-0.983,0.042c-2.4,0.017-4.888-0.398-7.459-1.334c-11.951-4.35-21.964-18.596-23.885-32.07
			c-0.007-0.054-0.017-0.108-0.024-0.164c-0.038-0.277-0.065-0.551-0.096-0.826c-0.798-7.383,0.882-14.482,6.059-19.535
			c0.082-0.079,0.153-0.167,0.232-0.248c7.875-7.529,21.533-9.416,33.241-9.416c0.266,0,0.526-0.025,0.788-0.04
			c3.054,14.986,10.963,28.219,21.998,38.006C209.888,198.695,209.727,198.923,209.585,199.169z M232.172,35.531
			c12.026-10.09,35.628-10.09,47.655,0c13.493,11.324,6.633,30.489-1.499,44.574c-0.136,0.236-0.235,0.484-0.357,0.724
			c-6.91-2.315-14.292-3.588-21.971-3.588c-7.679,0-15.061,1.274-21.971,3.588c-0.121-0.241-0.22-0.488-0.357-0.724
			C225.539,66.019,218.678,46.853,232.172,35.531z M279.826,257.647c-12.026,10.09-35.628,10.09-47.655,0
			c-13.493-11.324-6.633-30.489,1.499-44.574c0.136-0.236,0.235-0.484,0.357-0.724c6.91,2.315,14.292,3.588,21.971,3.588
			s15.061-1.274,21.971-3.588c0.121,0.241,0.22,0.488,0.357,0.724C286.459,227.159,293.319,246.325,279.826,257.647z
			 M255.999,188.125c-22.904,0-41.537-18.633-41.537-41.535c0-22.904,18.632-41.537,41.537-41.537s41.537,18.632,41.537,41.537
			C297.535,169.493,278.903,188.125,255.999,188.125z M302.412,94.01c8.132-14.085,21.309-29.611,37.853-23.584
			c14.75,5.369,26.553,25.811,23.828,41.27c-3.059,17.349-23.089,20.99-39.352,20.99c-0.266,0-0.526,0.025-0.788,0.04
			c-3.054-14.986-10.963-28.219-21.998-38.008C302.109,94.484,302.27,94.256,302.412,94.01z M319.106,219.184
			c-6.787-4.866-12.433-12.635-16.693-20.013c-0.142-0.246-0.303-0.473-0.457-0.706c11.034-9.787,18.944-23.02,21.998-38.006
			c0.263,0.015,0.521,0.04,0.788,0.04c11.707,0,25.364,1.887,33.241,9.416c0.079,0.081,0.15,0.168,0.232,0.248
			c5.179,5.053,6.858,12.152,6.059,19.535c-0.033,0.273-0.06,0.548-0.097,0.823c-0.007,0.056-0.017,0.11-0.025,0.164
			c-1.92,13.473-11.934,27.72-23.885,32.07c-2.559,0.932-5.035,1.346-7.426,1.334c-3.998-0.051-8.357-1.303-12.97-4.433
			C319.621,219.484,319.363,219.335,319.106,219.184z M457.116,296.442c-9.699,3.521-17.987-6.555-23.23-15.638
			c-3.839-6.65-12.343-8.93-18.995-5.09c-4.462,2.577-6.957,7.252-6.956,12.059c0.001,2.357,0.602,4.747,1.866,6.936
			c5.244,9.082,9.834,21.302,1.929,27.938c-7.461,6.258-22.66,6.258-30.12,0c-7.907-6.634-3.315-18.856,1.929-27.938
			c1.264-2.189,1.865-4.579,1.866-6.936c0.001-4.807-2.493-9.482-6.956-12.059c-6.653-3.841-15.156-1.56-18.995,5.09
			c-5.244,9.083-13.536,19.159-23.231,15.638c-9.15-3.332-16.751-16.495-15.06-26.085c1.792-10.167,14.672-12.3,25.16-12.3
			c7.679,0,13.906-6.227,13.906-13.906c0-0.124-0.001-0.248-0.006-0.37c0.282-0.177,0.56-0.369,0.841-0.551
			c0.427-0.275,0.855-0.548,1.275-0.834c0.046-0.031,0.09-0.064,0.136-0.096c17.876-12.253,29.821-34.384,29.825-55.966
			c0-0.025,0-0.049,0-0.074c0-0.615-0.004-1.228-0.025-1.841c-0.203-7.504-1.888-14.909-5.401-21.732
			c7.084-2.684,16.711-2.338,23.151,1.731c10.06,6.352,5.44,19.356-0.211,29.155c-0.004,0.007-0.008,0.014-0.013,0.021
			c-3.841,6.651-1.562,15.155,5.09,18.995c6.653,3.841,15.156,1.56,18.995-5.09c5.244-9.083,13.53-19.168,23.23-15.639
			c9.151,3.332,16.751,16.495,15.06,26.085c-1.792,10.167-14.671,12.3-25.159,12.3c-7.679,0-13.906,6.227-13.906,13.906
			s6.226,13.904,13.906,13.904c10.488,0,23.366,2.133,25.159,12.3C473.867,279.947,466.268,293.11,457.116,296.442z"/>
	</g>
</g>
<g>
	<g>
		<path d="M269.64,495.381c-0.181-0.889-0.459-1.765-0.807-2.599c-0.348-0.836-0.779-1.642-1.279-2.406
			c-0.499-0.751-1.083-1.474-1.724-2.114c-0.64-0.641-1.349-1.225-2.114-1.724c-0.751-0.501-1.557-0.932-2.406-1.279
			c-0.834-0.348-1.709-0.612-2.599-0.793c-1.794-0.362-3.629-0.362-5.423,0c-0.89,0.181-1.766,0.445-2.6,0.793
			c-0.848,0.348-1.653,0.779-2.404,1.279c-0.766,0.499-1.475,1.083-2.115,1.724c-0.64,0.64-1.224,1.361-1.724,2.114
			c-0.515,0.765-0.932,1.571-1.279,2.406s-0.626,1.709-0.807,2.599c-0.181,0.904-0.263,1.809-0.263,2.712
			c0,0.918,0.083,1.823,0.263,2.726c0.181,0.891,0.459,1.767,0.807,2.6c0.348,0.836,0.78,1.641,1.279,2.406
			c0.501,0.751,1.085,1.474,1.724,2.114c0.64,0.64,1.349,1.224,2.115,1.724c0.751,0.501,1.556,0.932,2.404,1.279
			c0.836,0.348,1.71,0.612,2.6,0.793s1.808,0.263,2.712,0.263c0.902,0,1.822-0.083,2.712-0.263c0.89-0.181,1.766-0.445,2.599-0.793
			c0.848-0.348,1.655-0.779,2.406-1.279c0.765-0.501,1.474-1.085,2.114-1.724c0.641-0.64,1.225-1.361,1.724-2.114
			c0.501-0.766,0.932-1.571,1.279-2.406c0.348-0.834,0.626-1.709,0.807-2.6c0.181-0.903,0.264-1.808,0.264-2.726
			C269.905,497.19,269.82,496.285,269.64,495.381z"/>
	</g>
</g>
</svg>